# xmcd
#
# Track frame offsets: 
#        150
#        14203
#        25186
#        35850
#        49348
#        63732
#        74729
#        88731
#        100928
#        112792
#        126625
#        138060
#        150610
#        164138
#        178552
#        190575
#        205827
#        217401
#        226107
#        241088
#        252436
#        269688
#        284890
#        296538
#        306867
#
# Disc length: 4456 seconds
#
# Revision: 0
# Processed by: cddbd v1.5.2PL0 Copyright (c) Steve Scherf et al.
# Submitted via: ExactAudioCopy v1.1
#
DISCID=91116619
DTITLE=小坂一也 - 青春の小坂一也全集_CD2
DYEAR=2010
DGENRE=Country Japan
TTITLE0=青春サイクリング
TTITLE1=北風さん
TTITLE2=ホワイ・スポーツ・コート
TTITLE3=アイル・ビー・コート
TTITLE4=ロンサム・カウボーイ
TTITLE5=ママ・ギター
TTITLE6=オンボロ人生
TTITLE7=監獄ロック
TTITLE8=手デイ・ベア
TTITLE9=キヤンプたのしや
TTITLE10=よろめき行進曲
TTITLE11=ジヤムバラヤ・ロック
TTITLE12=青春の広場
TTITLE13=パパとママのワルツ
TTITLE14=にれの木陰で(内気な男)
TTITLE15=ヘイ・パイナップル
TTITLE16=ワルツイング・　マチルダ
TTITLE17=ローハイド
TTITLE18=君を送った帰り道
TTITLE19=無敵のライフルマン
TTITLE20=思い出のグリーン・グラス
TTITLE21=悲しきデイスク・ジヨッキー
TTITLE22=ヨー・カム
TTITLE23=クライング・タイム
TTITLE24=今・一番のありがとう・94
EXTD=
EXTT0=
EXTT1=
EXTT2=
EXTT3=
EXTT4=
EXTT5=
EXTT6=
EXTT7=
EXTT8=
EXTT9=
EXTT10=
EXTT11=
EXTT12=
EXTT13=
EXTT14=
EXTT15=
EXTT16=
EXTT17=
EXTT18=
EXTT19=
EXTT20=
EXTT21=
EXTT22=
EXTT23=
EXTT24=
PLAYORDER=
